<svg display="none" xmlns="http://www.w3.org/2000/svg">

 <symbol id="kh-world-radiant-garden" viewBox="0 0 256 256" xmlns="http://www.w3.org/2000/svg">
 <path d="M108.2 64.3l-19.3 56.2.1 9.2v9.3l3.8 2.5c5.4 3.6 8.2 9 8.2 15.9 0 6.7-1.6 10.1-6.4 14.4-9.5 8.3-24 5.3-29.5-6.1-3.9-8.1-1.7-17.8 5.3-23.2 3.5-2.7 3.6-2.9 3.6-9.5v-6.8l-28.7-25.3C11.1 70.7 11 70.6 10.5 71.2c-.4.3 25.5 166.3 27.1 174l.6 2.8h179.6l.6-2.7c1.6-7.8 27.5-173.8 27.1-174.1-.5-.6-.6-.5-34.8 29.7L182 126.2v6.8c0 6.6.1 6.8 3.6 9.5 7 5.4 9.2 15.1 5.3 23.2-5.5 11.4-20 14.4-29.5 6.1-4.8-4.3-6.4-7.7-6.4-14.4 0-6.9 2.8-12.3 8.2-15.9l3.8-2.5v-19l-19.2-56C137.2 33.2 128.3 8 128 8c-.3 0-9.2 25.3-19.8 56.3z"/>
 </symbol>

 <symbol id="kh-world-the-world-that-never-was" viewBox="0 0 256 256" xmlns="http://www.w3.org/2000/svg">
 <path d="M64.6 10.5C43.8 16.2 26.5 35.2 23 56.2c-2.2 12.8.1 29.6 6 43.3 3.5 8.1 12.4 20.6 20.7 29.2 4.3 4.3 15.8 14.8 25.5 23.1 10.2 8.9 19.6 17.9 22.3 21.5 7.1 9.3 16.7 29.7 22.8 48.5 3.1 9.2 5.8 18.4 6.2 20.4.4 2.1 1.1 3.8 1.5 3.8.4 0 1.1-1.7 1.5-3.8.4-2 3.1-11.2 6.2-20.4 6.1-18.8 15.7-39.2 22.8-48.5 2.7-3.6 12.1-12.6 22.3-21.5 33.9-29.1 44.1-42.2 50.3-64.3 6.7-24 1.5-46.2-14.6-62.1C204.9 13.9 192.9 9 175.9 9c-17.7 0-30.5 4.8-41.6 15.5l-6.3 6.1-6.2-6.1c-7.6-7.3-14.1-10.9-24.4-13.5-9.1-2.3-25.2-2.6-32.8-.5zm28.6 9.6c20.5 4.3 33.8 20.8 33.8 42.2 0 11.5-6.5 20-17.7 23.3-14.3 4.2-26.7-4.4-26.6-18.3 0-6.3 2.9-11.4 7.7-13.7 3.8-1.8 9.3-2.1 11.6-.6 1.2.8 1.2 1-.5 1-6.4 0-12.3 8.8-9.7 14.5 1.5 3.3 6.9 6.5 10.9 6.5 7.5 0 13.5-9.7 11.3-18.1-1.5-5.5-8.8-13.2-15.7-16.6-4.7-2.2-6.8-2.6-14.2-2.6-10.9.1-18.6 2.8-25.2 9-13.1 12.2-12.6 33.6 1.2 54 1.8 2.7 12.3 14 23.4 25.3 13.6 13.8 21.9 23.1 25.5 28.5 5.6 8.6 13.6 24.7 16.6 33.2 1 2.9 2.1 5.3 2.4 5.3.3 0 1.4-2.4 2.4-5.3 3-8.5 11-24.6 16.6-33.2 3.5-5.4 11.8-14.6 24.9-28 22.6-22.9 24.8-25.6 29.6-35.6 13.4-28.5-.3-53.1-29.6-53.2-7.4 0-9.5.4-14.2 2.6-6.9 3.4-14.2 11.1-15.7 16.6-2.2 8.4 3.8 18.1 11.3 18.1 4 0 9.4-3.2 10.9-6.5 2.6-5.7-3.3-14.5-9.7-14.5-1.7 0-1.7-.2-.5-1 2.3-1.5 7.8-1.2 11.6.6 4.8 2.3 7.7 7.4 7.7 13.7.1 13.9-12.3 22.5-26.6 18.3-11.2-3.3-17.7-11.8-17.7-23.3 0-21.4 13.3-37.9 33.8-42.2 8.7-1.8 21.4-1.4 28.5 1 29.5 9.8 41 42.6 26.1 74.7-6.9 15-15.8 25-43.2 48.5-9.5 8.2-19.5 17.6-22.3 21-9.9 12.2-19.3 35.3-22.1 54.4-.7 4.6-1.5 8.3-1.8 8.3-.3 0-1.1-3.7-1.8-8.3-2.8-19.1-12.2-42.2-22.1-54.4-2.8-3.4-12.8-12.8-22.3-21-27.5-23.6-36.3-33.4-43.2-48.5C23.9 64 34.9 31.6 63.9 21.4c7.5-2.7 20.1-3.2 29.3-1.3z"/>
 </symbol>

 <symbol id="kh-world-simulated-twilight-town" viewBox="0 0 128 128" xmlns="http://www.w3.org/2000/svg">
 <path d="M20 21.7c0 .4 4.5 8.9 9.9 18.8l9.8 18 5.1-.3c4.4-.3 5.5 0 7.7 2.2 3.1 3.1 3.1 4.5.3 8.1-2 2.5-2.5 2.7-7.4 2.2l-5.3-.5L30 88.7c-5.6 10.1-10 18.7-9.7 19 .3.2 4.1-1.5 8.4-4 4.3-2.4 12.6-7 18.4-10L57.7 88l-.1-5.6c-.1-5 .2-5.9 2.5-7.6 2.4-1.9 2.8-1.9 5.6-.4 3.9 2 5.8 6.3 4.3 10-.5 1.5-1 2.9-1 3.1 0 .4 3.3 2.3 28.5 16.3 5 2.7 9.2 4.8 9.4 4.6.3-.3-8.5-17.3-15.6-29.6l-4.4-7.7-4.7.6c-4.2.5-5 .2-7.5-2.2-3.3-3.4-3.4-5.9-.2-9 2.5-2.6 6.3-3.2 9.5-1.5 1.7.9 2.4.2 5.8-5.7 2.1-3.8 5.6-10.2 7.7-14.3 2.1-4.1 4.8-9.1 6-11 1.2-1.9 2.4-4.3 2.8-5.3.8-2.1 2.5-2.9-20.6 9.6l-16.7 9 .6 4.6c.5 3.8.2 5.1-1.6 7.3-2.6 3.4-6.2 3.6-9 .6-2.7-2.9-3.4-5.7-2.1-9.1 1-2.5.8-2.9-2.9-5.2-2.2-1.4-4.2-2.5-4.5-2.5-.3 0-6-3.1-12.8-6.8C20.4 21 20 20.8 20 21.7z"/>
 </symbol>

 <symbol id="kh-world-twilight-town" viewBox="0 0 256 256" xmlns="http://www.w3.org/2000/svg">
 <path d="M114.5 5.4C95.7 9.1 79.2 18.7 67.4 33c-5.3 6.5-12.8 21.1-15 29.5-.8 3.3-1.8 10.5-2.1 16-1.6 28.7 13.2 56.4 38.1 70.9 3.6 2.1 6.6 4.2 6.6 4.7 0 .4-9.6 21.4-21.4 46.6l-21.3 45.8 37.8.3c20.9.1 54.9.1 75.8 0l37.8-.3-21.3-45.8c-11.8-25.2-21.4-46.2-21.4-46.6 0-.5 3-2.6 6.6-4.7 24.9-14.5 39.7-42.2 38.1-70.9-.7-12.6-2.6-19.7-8.1-31-9.9-20.1-29-35.5-50.6-40.9-9.1-2.3-24-2.8-32.5-1.2z"/>
 </symbol>

 <symbol id="kh-world-disney-castle" viewBox="0 0 256 256" xmlns="http://www.w3.org/2000/svg">
 <path d="M50.8 29.5c-13 3.3-25 11.5-32.7 22.6C10.3 63.2 8.6 68.3 8.6 82c0 13.9 2 20.1 9.1 28 5.3 5.9 11.1 9.5 19.4 12.1 8.3 2.6 15.5 2.4 24.6-.5 2-.7 1.8.1-2.2 7.6-6.8 12.8-9 21.8-9 36.8 0 10 .5 14.1 2.3 20.3 7.7 26.9 28.1 47.3 54.9 54.9 11.1 3.2 29.5 3.2 40.6 0 26.8-7.6 47.2-28 54.9-54.9 1.8-6.2 2.3-10.3 2.3-20.3 0-15-2.2-24-9-36.8-4-7.5-4.2-8.3-2.2-7.6 9.1 2.9 16.3 3.1 24.6.5s14.1-6.2 19.4-12.1c7-7.7 9.1-14.2 9.1-27.5.1-13.3-1.4-18.4-8.5-29-6-8.9-11.6-14.1-20.8-18.9-21.1-11.1-46.6-7.3-58.1 8.5-5.5 7.7-7.4 14.2-7.4 25.9 0 10.1.8 13.9 4.9 23.2.7 1.7.4 1.7-3.6.2C147.1 90 135.5 88 128 88s-19.1 2-25.9 4.4c-4 1.5-4.3 1.5-3.6-.2 4.7-11.2 4.9-11.8 4.9-22.7 0-9.1-.4-12-2.2-16.6-4.4-11.1-11.2-17.8-22.1-22-7.2-2.7-20.4-3.4-28.3-1.4z"/>
 </symbol>

 <symbol id="kh-world-beasts-castle" viewBox="0 0 256 256" xmlns="http://www.w3.org/2000/svg">
 <path d="M147.8 8.8c-9.9 3.5-15.6 12.7-16.6 26.5l-.5 8 9.9-.5c9.8-.5 17.4-2.6 22.9-6.2l2.4-1.6-2.9-4.7c-2.4-4-4-8.7-7.6-22.1-.4-1.5-1.8-1.4-7.6.6zM124.8 13.8c-4.4.3-5.1.8-10.6 6.8-6.6 7.2-14 20.4-11.9 21.5 1.7.9 18 1.9 20.6 1.2 1.6-.4 1.9-1.1 1.5-2.8-.9-3.4 1.3-16 3.8-21.7 1.1-2.7 1.9-5 1.7-5.1-.2-.1-2.5-.1-5.1.1zM95 28.8c-4.1 1.1-10.9 1.5-26.7 1.6-11.7.1-21.3.3-21.3.6s.9 5 2 10.5 2.3 15.8 2.7 22.8c.5 11.2.8 12.7 2.2 12.1 7.7-3.2 14.8-4.7 25.4-5.1l11.7-.6v-6.1c0-12.4 3.5-26.2 8.5-33.8 1.4-2.1 2.2-3.8 1.8-3.7-.5.1-3.3.8-6.3 1.7zM174.5 43.7c-5.1 7.7-15.5 17.9-23.5 23.1-7.7 5-19.8 9.9-29.5 11.8-11.8 2.5-20.1 7.1-30.6 17.1-5.2 4.9-10.4 9.6-11.6 10.4l-2.1 1.5 1.9 6.9c1 3.9 3 11.7 4.4 17.5 3.2 13.3 7.1 21.5 13.4 27.3 5.8 5.4 9.5 6.3 24 5.4 15.5-.9 29.9-6.2 42.8-15.8 4.3-3.2 6.1-5.6 10.8-14.7 6-11.6 17.5-27.8 27-38l5.8-6.3-2.1-2.7c-10.5-13.1-21.8-32.9-25.2-44l-1.7-5.3-3.8 5.8z"/>
 <path d="M156.5 47.3c-5.5 2-8 2.2-31.7 2.2-29.6 0-26.4-1.4-27.4 12-.9 11.3-.1 12 12.1 11.1 19-1.3 32.9-7.3 45.9-19.8 4.5-4.2 7.9-7.7 7.6-7.7-.3.1-3.2 1.1-6.5 2.2zM70 80.5c-13.2 2.6-31.6 10.6-39.5 17.1l-3 2.5 4 3.2c7.6 6 19.5 18 23.2 23.4 2 2.9 4.7 8.3 5.9 11.9 1.9 5.7 2.9 7.1 7.5 10.6 4.6 3.4 18.9 11.4 18.9 10.5 0-.1-1.8-3.8-4-8.1-2.5-5.1-4.8-12-6.5-19.5-3.1-13.4-6.3-23.8-7.6-24.6-1.8-1.2-.8-3.3 2.3-4.6 1.7-.7 7.3-5.2 12.5-10.1 5.2-4.8 10.6-9.6 12-10.6l2.7-1.7-2.9-.6c-5.1-1.1-18.7-.8-25.5.6z"/>
 <path d="M66 157.9c0 .4 1.3 2.6 2.9 4.8C78 175.2 94.8 183 113 183.1c8.3 0 8.6.1 14.5 4.2 3.3 2.3 11 6.7 17.2 9.8l11.1 5.6-4.7 3.5c-10.3 7.7-33.1 37-33.1 42.6 0 .5 2.8.3 6.3-.4 9.1-2 15.6-1.6 25 1.2 1.5.5 1.7-.2 1.7-4.4 0-7.5 3.5-19.7 8.5-29.7 7-13.9 6-13.3 15.2-10 10.6 3.9 20.7 8.6 27.3 12.8l5.5 3.6 1.2-6.6c2.5-13.6 6.1-19.9 14.8-26.1 5.4-3.9 5.5-4 2.9-4.6-1.4-.4-8.1-.7-14.8-.7-16.1 0-24.5 1.6-44.1 8.6l-2 .7 2-1.7c7.4-6.2 29.7-13.5 41-13.5 5.5 0 6.5-1.4 2.2-3.1-4.6-1.8-13-7.2-17.5-11.3l-3.9-3.6-9.9 9.8c-9.5 9.4-24 21.2-26.1 21.2-1.3 0-15.3-9.8-15.3-10.8 0-.4 2.5-2 5.6-3.6 6.5-3.4 15.8-11.6 17.9-15.7 2.1-4 1.9-4.3-1.5-1.9-1.6 1.2-5.9 3.4-9.4 5-25.3 11.5-55.9 10.1-78.8-3.5-3.2-1.9-5.8-3.1-5.8-2.6z"/>
 </symbol>

 <symbol id="kh-world-olympus-coliseum" viewBox="0 0 256 256" xmlns="http://www.w3.org/2000/svg">
 <path d="M136.1 5.1C104.5 8.6 78 24.2 67.3 45.6l-3.5 7.2-6.5 1.6c-9.8 2.4-19 7.4-26.3 14.3-18.3 17.2-18.1 40.9.4 58 6.4 5.9 18 12.1 26.8 14.2 11.4 2.7 41.5.4 58.4-4.5 17.6-5 32.6-15 37.3-24.7 7.8-16-5.7-27.7-31.8-27.7-19.9 0-37.2 6.6-43.2 16.4-2.3 3.8-2.5 1.5-.4-4.5 4.9-13.9 19-20.4 44-20.4 14.6 0 23.7 2.1 31.3 7.2 13.1 8.8 14.9 25.7 4.3 38.6-15 18.1-40.3 27.1-83 29.5l-12.2.7-5.9 13.3c-3.3 7.3-6 13.4-6 13.7 0 .3 9.5.5 21 .5 11.6 0 21 .1 21 .3 0 .1-6.5 15.1-14.4 33.2-7.9 18.2-14.3 33.1-14.1 33.3.2.2 95.3-61.1 139-89.7l7-4.6-25.8-.5-25.9-.5 10.4-13.7 10.3-13.7 6.5-2.2c19.2-6.5 35-18.4 42.9-32.3 7.3-12.8 8.2-28.5 2.3-41.1-4.2-8.9-9.3-15.5-16.7-21.6-19-15.6-50.2-23.9-78.4-20.8z"/>
 </symbol>

 <symbol id="kh-world-agrabah" viewBox="0 0 256 256" xmlns="http://www.w3.org/2000/svg">
 <path d="M120.1 47.6c-1.4 1.8-2.1 4.1-2.1 6.9v4.2h7.6l7.6.1-.5-4.4c-.7-6.4-3-9.4-7.2-9.4-2.4 0-3.9.7-5.4 2.6zM115.9 62.4c-7.9 2.8-12.6 6.9-14.3 12.3l-.7 2.3h24c23.9 0 24.1 0 24.1-2.1 0-3.6-7.8-10.5-13.9-12.3-6.5-1.9-14.2-2-19.2-.2zM97.1 83.6c-2.5 3.2-2.5 3.3-.5 6.2 1.5 2.2 1.8 2.2 28.3 2.2 24.7 0 26.9-.1 28.4-1.8 2.2-2.5 2.1-4.8-.3-7.2-1.9-1.9-3.3-2-27.9-2h-26l-2 2.6z"/>
 <path d="M230.5 84.6c-5.5 1.9-13.6 4.4-18.1 5.5l-8.1 2.1-1.1 7.4c-1.4 9-4.3 17.5-7.8 22.7l-2.6 4-2.4-4.3c-5.3-9.3-14-16.9-25.9-22.6l-6.9-3.4H95.1l-10 4.9c-12.6 6.2-21.3 7.9-32.2 6.3-4.5-.6-9.5-2.1-12.5-3.7-4.4-2.4-5.7-2.6-13.4-2.3-8.5.5-20.1 4.1-18.3 5.8.4.5 4.4 1.8 8.8 3 9.8 2.7 21.4 8.6 27.8 14.2 2.7 2.2 9.5 10.2 15.2 17.7 10.9 14.5 21 24.9 29 30l4.9 3.1h30.2c28.2 0 30.6-.1 35-2 12.2-5.3 25.9-17.1 36.7-31.5 6.9-9.2 17.6-30.5 18.4-36.4.4-3.2 1.1-4.2 2.7-4.5 1.8-.3 11.5-2.6 18.5-4.3 2.4-.6 2.4-.5 1.7 4.3-1 7.4-4.3 11.4-17.2 20.6-12.4 8.8-16.2 13.2-17.1 19.6-.6 4.4 1.5 9.5 4.6 11.2 3.5 1.8 8.6 1.2 11.5-1.5 3.7-3.5 3.6-8.3-.5-13-1.8-2.1-2.8-4-2.3-4.4.9-.8 19.4-8.3 27.8-11.2 2.4-.9 4.2-2.3 4.8-3.9 1.4-3.7.3-22.7-1.6-28-1.5-4.1-5.2-9.1-6.5-8.9-.3 0-5.1 1.6-10.6 3.5zM108 178.7c0 .3.7 1.4 1.6 2.4 2.4 2.7 3 9.4 1 12.4-3.2 4.9-16.6 9.7-30.6 11-15.2 1.4-15.2 1.4-14.8 4.3l.3 2.7h120l.3-2.7c.3-2.5 0-2.7-4-3.2-2.4-.2-8.4-.9-13.5-1.5-12-1.5-21.5-4.5-25.8-8.2-2.9-2.6-3.5-3.8-3.5-7.3 0-2.3.9-5.5 2-7.4l2-3.2h-17.5c-9.6 0-17.5.3-17.5.7z"/>
 </symbol>

 <symbol id="kh-world-land-of-dragons" viewBox="0 0 256 256" xmlns="http://www.w3.org/2000/svg">
 <path d="M107 13.5c-28 5.3-54.5 21.7-71.6 44.4C-.1 105.2 4.1 170 45.5 211.5c50.6 50.7 134 44.9 177-12.3 14.2-18.9 22-40.6 23.2-64.7 2.4-46.8-23.5-90.3-66.1-111-16.9-8.3-27.3-10.7-48.1-11.1-11.9-.2-19.3.1-24.5 1.1zm0 27V62H79v-9h19V42c0-12.9.4-12.7-11-7.7-10.1 4.4-20.2 11.1-28.4 18.8C52.5 58.8 43 69.9 43 71.4c0 .3 38.5.6 85.5.6s85.5-.3 85.5-.6c0-1.6-7.5-10.6-14.2-17C189.3 44.3 178.5 37.3 165 32l-5-2v23h18v9h-28V19h2.4c1.3 0 5.8 1.1 10 2.5 27.8 9.1 49.4 26.4 63.8 51.1 6.4 10.9 6.7 10.4-6.1 10.4H209v42h28v9h-28v41h11c8.2 0 11 .3 11 1.3 0 2.2-8.5 16.3-13.9 23-10.5 13.2-26.7 26-41.3 32.7-7.5 3.4-20.7 7.5-21.5 6.7-.3-.4.9-2.8 2.6-5.5 2.7-4.2 4-5.3 9.9-7.5 15.7-6.2 31.1-17.6 42.1-31.2l6.5-8-85.9-.3c-47.2-.1-86 0-86.3.3-.9.9 5.2 8.7 12.4 16 8.7 8.8 21.3 17.3 33.1 22.4 7.8 3.4 9.1 4.3 11.7 8.5 1.6 2.5 2.6 4.9 2.3 5.2-1 1.1-14.9-3.6-24-8.2-15.5-7.6-27.4-17.2-38-30.4-5.2-6.6-14.7-22.2-14.7-24.4 0-.3 5-.6 11-.6h11v-41H20v-9h28V83H37c-6 0-11-.3-11-.8 0-.4 1.9-4.1 4.3-8.3C41.6 54.1 59.4 37.3 79 27.8c7.5-3.6 22.4-8.7 25.8-8.8h2.2v21.5z"/>
 <path d="M58 129v46h142V83H58v46z"/>
 </symbol>

 <symbol id="kh-world-100-acre-wood" viewBox="0 0 256 256" xmlns="http://www.w3.org/2000/svg">
 <path d="M105 17.1c-30 2.8-53.9 10.5-62.5 20.1-4.1 4.5-4.4 7.2-1.2 11.9 7.7 11.4 42.9 21.5 77.1 22 12.9.2 14.7.7 16.9 5 1.6 2.9 1.8 4.9 1.3 13.4-.7 11.2 0 16.4 2.1 17.2 2.2.9 3.3-1.6 3.3-7.5 0-9.9 4.5-15.2 12.8-15.2 7.6 0 9.7 5 10.6 25.5.9 19.2 3.3 25.5 9.8 25.5 8.5 0 9.9-4.5 10.8-33.1.5-19.9.8-23 2.6-26.5 2.4-4.6 6.1-6.3 9.8-4.6 5 2.2 5.9 5.2 6.7 21.8.5 8.5 1.4 16.4 2 17.6l1.2 2.3 1-2.2c.7-1.5.4-6.6-.8-16.4-2.5-20.5-2.3-27.5.9-34.1 1.4-2.9 3.7-6.8 5.1-8.7 7.2-9.8-2-19.5-25.5-26.9-21.8-6.9-56-9.8-84-7.1zm49.5 3c17.8 2.2 33 8 36 13.9 2.3 4.5 1.8 6.9-2.2 11-8.2 8.1-30.8 13-60.3 13-29.5 0-52.1-4.9-60.2-13-4.1-4.1-4.6-6.5-2.3-11 6.2-12 49.1-18.6 89-13.9z"/>
 <path d="M108.5 26c-22.2 2.3-39.1 8.4-37.2 13.4.9 2.4 11 6.6 21.3 8.9 8.7 1.9 12.9 2.2 35.4 2.2 22.6 0 26.7-.3 35.5-2.2 11.8-2.6 21-6.9 21-9.8 0-4.1-12.4-9-29-11.5-10.2-1.5-36.6-2-47-1zM44.2 65.7C39.9 71.8 30 94.4 30 98c0 1.4 11 6.7 20.8 10 10.5 3.5 31.4 7.5 47.2 8.9 12.7 1.2 45.3 1.5 54.9.5l6.1-.7-.6-10.6c-.8-13-1.5-15.1-4.9-15.1-3.2 0-4.2 2.3-5 11.2-.8 8-2.6 10.6-7.7 11.5-3.3.5-4.1.2-7.3-3-3.8-3.8-3.7-3.2-3.9-21.7l-.1-10.5-8-.2c-25.9-.8-49.1-4.9-66.4-11.9-4.7-1.9-8.6-3.4-8.7-3.4-.2 0-1.1 1.2-2.2 2.7zM213.3 75.2c2.4 22.1 3.2 27.8 3.9 27.8 1.6 0 8.8-4 8.8-4.9 0-3.7-10.7-28.1-12.3-28.1-.6 0-.7 2.1-.4 5.2zM194.1 80.7c-.6 2.1-1.1 9.8-1.1 17 0 12 .2 13.3 1.8 13.3 4.3-.1 4.5-1 3.7-16.6-.4-8.1-.9-15.3-1.2-16.1-.9-2.3-2.2-1.4-3.2 2.4z"/>
 <path d="M27.6 108.3c-1.6 6.5-2.7 23.2-2.1 31.7 1.6 23.8 8.2 44.1 20.3 62.5 5.1 7.7 19.2 22.8 25.1 26.9 19.3 13.4 94.9 13.4 114.2 0 5.9-4.1 20-19.2 25.1-26.9 13.8-21.1 20.1-42.4 20.1-69 .1-12.5-1.2-25.8-2.6-27.2-.2-.2-2.8.9-5.8 2.3-3.7 1.8-5.9 3.6-6.9 5.8-2 4.2-6.2 5.6-10 3.4-2.5-1.4-3.5-1.5-7.7-.4l-4.8 1.2-.8 5.3c-1 7.3-5.1 14.6-9.2 16.5-9.4 4.5-20.4-1.7-22.1-12.3l-.6-3.6h-29.1c-30.9 0-41.4-.8-62.2-5-14-2.8-25.6-6.4-33.9-10.6-3.3-1.6-6-2.9-6.2-2.9-.1 0-.4 1-.8 2.3z"/>
 </symbol>

 <symbol id="kh-world-pride-land" viewBox="0 0 256 256" xmlns="http://www.w3.org/2000/svg">
 <path d="M147.7 13.1C119 16.4 96 26.3 93.4 36.5c-1 4 3 11.3 7.1 13.1 3.4 1.4 6.6 1 20-2.9 5-1.5 11.9-3.1 15.5-3.7 8.7-1.3 29.6-1.3 36.2.1 19 4 28.2 17.2 28.1 40.4 0 16.4-4.5 34.1-9.7 38-9.9 7.4-38.7 16.5-52.2 16.5H134v-6.8c0-7.1-2.3-15.7-5.5-20.6-1.7-2.6-1.7-2.6 3.8-7.6 3.7-3.4 6.2-6.7 7.4-9.8 5.3-13.9-2-30-15.6-34.7-17.4-5.9-34.7 5.9-35.4 24.1l-.2 5.9-6.8.7c-11.7 1.3-22.6 6.9-31.6 16.1l-4.3 4.5-5.2-2.4c-15.3-7.1-33 1.9-36.8 18.9-3.9 17.6 13.3 35 30.9 31l4.4-1 2 3.9c4.5 8.9 13.8 16.6 24.8 20.4 4 1.5 6.5 2.9 6.3 3.6-.7 2.7-21.1 32.5-25.7 37.6-3.9 4.3-4.7 5.7-3.8 7 2.2 3.6 14.8 8.2 27 9.8 5 .6 5.4.5 8-2.3 1.6-1.7 5.4-8.8 8.6-15.9 6.3-14.1 8.8-18.1 10.6-17 2.2 1.4-2.1 18.5-7 27.5-1.6 3-2.9 6.1-2.9 6.8 0 3.3 15.1 7.3 27.4 7.3 5.4 0 6.1-.3 9-3.3 4.9-5.2 8.6-20.6 8.6-35.6v-5.7l17-2.8c11.1-1.9 17-3.3 17-4.1 0-.7-.7-3-1.7-5.1-1-2.4-1.6-6.8-1.7-11.4 0-8.8 2.8-16.3 8.5-21.9 3.5-3.6 11-7.4 16.6-8.6 2.9-.6 3.3-.4 3.9 1.9.8 3.3 0 4.4-4.1 5.2-5.5 1-12 5.8-15.2 11.1-3.8 6.5-4 16.4-.5 24l2.4 4.9-5.7 19c-7 23.5-7.2 25.6-2.5 29.5 4.1 3.3 15.2 6.6 19.3 5.6 7.7-2 25.7-27.2 40.9-57.4 17.1-33.7 21.8-51.2 21.8-80.4 0-23-3.3-38.3-12-55.6-7.7-15.4-19-27.7-31-33.8-13.9-7-36-9.9-57.3-7.4z"/>
 </symbol>

 <symbol id="kh-world-halloween-town" viewBox="0 0 256 256" xmlns="http://www.w3.org/2000/svg">
 <path d="M117 21.7c0 .4 1.3 4 2.9 7.8 1.6 3.9 3.2 9.1 3.6 11.6.5 3.6 1.2 4.9 3.2 5.8 3.9 1.8 5.8 0 6.1-5.3.1-2.6 1.6-8 3.3-12.2 1.7-4.1 2.9-7.7 2.7-8-.3-.2-1.9.1-3.7.7-3.3 1.1-13.1.8-16.3-.6-1-.4-1.8-.3-1.8.2z"/>
 <path d="M104.3 48c-8.4 1.7-17 7.3-23.4 15.4-3.3 4.1-8.1 7.6-10.5 7.6-1.1 0 0-2.1 4.1-7.5 5.3-7 4.6-8.2-3.9-7-14.4 1.9-26.9 13.3-35 31.9C33 94.3 25 106 25 103.8c0-.3 1.1-4 2.5-8.2 2.6-8.1 6.4-16.2 9.7-20.9 1.1-1.6 1.8-3.1 1.5-3.4-1.1-1.1-6.7.9-11 4-29.6 21.1-32.6 89.4-5.2 117.3 5.6 5.7 14.5 10.7 16.1 9.1.4-.3-1-3.2-2.9-6.4-3.1-5.2-8.7-18-8.7-19.9 0-2.4 7.7 7.3 11.3 14 4.9 9.6 13.6 19.2 20.8 23.1 4 2.1 7 2.9 12.6 3.3 4 .3 7.3.1 7.3-.4-.1-.5-1.4-2.5-3-4.4-1.7-1.9-3-3.8-3-4.2 0-1.9 7.2 2.1 12.6 7.2 8.9 8.3 14 10.4 24.4 10.5 6.9 0 9.3-.4 12.8-2.3 2.8-1.5 4.2-2.9 4.2-4.2 0-2.9 3.8-2.7 4.2.2.5 3.9 6.9 6.3 16.8 6.3 7.4 0 9.2-.4 14-2.9 3-1.6 8.2-5.4 11.5-8.5 5.1-4.9 10-8.1 12.1-8.1.3 0-1 2.3-3 5-2 2.8-3.6 5.3-3.6 5.6 0 1.6 12.9-.3 17.5-2.6 7.4-3.5 16.3-13 21.4-23 4.2-8 12.1-18.4 12.1-15.7-.1 2.2-6.6 17.1-9.8 22.2-1.7 2.7-2.7 5.2-2.1 5.3 2.4.9 12.1-5.2 16.8-10.5 22.7-25.4 23.3-81.1 1.3-108.9-3.5-4.5-11.8-10.2-15.9-11l-3.2-.6 4.4 7.8c3.7 6.5 6.4 13.3 10.1 25.4 1.1 3.5-7.6-7.9-9.1-12-7.4-19.7-22.1-33.9-36.8-35.6-6.3-.7-8 .6-4.9 3.9 2.4 2.7 7.2 9.9 7.2 10.9 0 2.2-6.5-2.1-10.4-6.9-12.5-15.2-27.5-20.4-41.3-14.4-5.1 2.3-5.3 2.5-5.3 6.2 0 3.2-.3 3.9-2 3.9s-2-.7-2-3.9c0-3.7-.2-4-4.7-5.9-5.9-2.4-12.5-3.3-18-2.2zM46.8 159.2c3.7 5.3 11.6 12.8 13.6 12.8.9 0 2-1.7 2.7-4.2.6-2.3 2.4-7.9 4.1-12.5l3-8.2 4.8 5.7c2.6 3.1 10.1 11 16.6 17.4l11.9 11.7 9.3-7.8c5.2-4.3 10.6-8.5 12.1-9.4l2.7-1.6 7.5 8.9c4.1 5 7.7 9 8.1 9 1.1 0 18.4-14.7 27.5-23.3l8.1-7.8 2 5.3c1.1 3 3 8.6 4.2 12.6 1.2 4 2.6 7.2 3.1 7.2.6 0 2.9-1 5.1-2.1 6.3-3.2 14.9-12.4 19.6-20.9 4.6-8.2 5.1-7.5 3.1 3.6-1.6 9.2-7.1 19.6-14.2 27l-6.2 6.4-7-.6-7-.7-4.8-7.8c-2.6-4.4-5.3-7.9-5.9-7.9-1.6 0-6.9 4.2-17.7 13.9l-9.4 8.5-5.5-3c-3-1.6-7.4-4.6-9.8-6.7l-4.4-3.8-4.6 3.1c-2.5 1.8-6.1 4.6-8 6.2l-3.4 3-5.3-4c-2.8-2.3-9.9-7.9-15.7-12.6l-10.5-8.5-2.2 4.4c-2.1 4-13.1 14.5-15.3 14.5-1.3 0-9.8-9.8-12.6-14.5-3.6-6.2-6.3-14.9-6.9-22.4l-.6-6.6 2.5 5.7c1.3 3.1 3.7 7.6 5.4 10z"/>
 </symbol>

 <symbol id="kh-world-port-royal" viewBox="0 0 256 256" xmlns="http://www.w3.org/2000/svg">
 <path d="M107.5 12.1c-38.2 5.6-66.9 26.3-74 53.5-2 7.6-2 28.7 0 41.7 1.6 10.8 4 17.2 8.5 22.8 2.6 3.3 3 4.6 3.6 13.6.4 6.2.2 12.5-.5 16.8-.7 3.9-1.3 9.4-1.3 12.3-.1 4.7.2 5.6 3.3 8.8 6 6.2 17.4 10.6 31.2 12 5.4.5 7 1.1 8 2.8.6 1.2 1.4 8.3 1.7 16.6l.5 14.4 3.4 2.3c1.9 1.3 3.7 2.3 4.1 2.3.4 0 .9-4.6 1.2-10.3.2-5.6.9-11.1 1.5-12.2.8-1.3.9 1.7.6 11.2-.3 7.1-.2 13.2.3 13.5.5.3 2.8.9 5.2 1.3l4.2.7v-7.4c0-5.1.3-6.8 1-5.8.5.8 1 4.3 1 7.6 0 6.8.6 7.4 7.8 7.4h3.2l-.6-8.8c-.3-4.8-.7-9.2-.9-9.9-.2-.7 0-1.5.4-1.7.9-.6 2.1 6.5 2.1 12.8 0 7.7.7 8.7 5.4 8.4 3.3-.2 4.1-.7 4.3-2.3.1-1.1.5-5.9.8-10.8.4-4.8 1.1-8.5 1.6-8.1.8.5.7 3.7-.6 16.2l-.5 4.2h3.8c7.9 0 8.2-.4 8.2-8.6 0-4.1.4-7.4.8-7.4s.6 3.1.4 7c-.2 3.8-.1 7 .2 7 .4 0 2.7-.5 5.1-1.1 4.2-1.1 4.4-1.2 5-5.7.3-2.6.1-8.1-.4-12.2-1.3-9.5-1.3-9.6 0-8.3.6.6 1.6 6.1 2.2 12.1l1.1 11 3.8-1.9c2.1-1.1 3.8-2.3 3.8-2.7.1-.4.2-6.8.4-14.2.3-16 1.3-19 6.2-19 6.1 0 18.7-3 24.8-5.9 6.7-3.1 12.3-8.1 13.2-11.7.3-1.2-.2-7.1-1.1-12.9-1.2-7.7-1.4-13.1-.9-19.6.6-8.1 1-9.6 4.1-14.1 6.8-9.9 9.3-21.8 9.4-45.8.1-17.4-1.6-23.8-8.9-35.1C202.7 29.7 180 17.1 150 12.5c-10.3-1.6-32.8-1.8-42.5-.4zM102.9 138h7.9l1.6 4c1.3 3.4 1.5 5.5.7 12.5-1.4 11.9-3.7 15.8-11.4 19-3.3 1.4-5.1 1.4-17.9-.1-15-1.6-18.5-2.8-22-7.5-2.7-3.6-3.5-8.2-2.7-15.2 1.7-14 13-19.9 28.7-15 5 1.6 9.8 2.3 15.1 2.3zm80.8-2.9c11.6 4.3 16.2 24 7.6 32.1-4.5 4.1-6.4 4.7-21.2 6.4l-14.1 1.6-4.7-2.3c-7.9-4-10.2-9.1-10.3-23.4 0-10.4.8-11.1 12.2-11.7 5.1-.3 11.1-1.2 13.3-2 4.8-1.9 13.3-2.2 17.2-.7zm-47.5 39.6c2.2 2.4 5.8 10.5 5.8 13.3 0 1.8-3.2 4-6 4-3.3 0-4-1.4-4-8.3 0-2.9-.4-6.7-.9-8.5-.8-2.7-.7-3.2.8-3.2.9 0 2.9 1.2 4.3 2.7z"/>
 <path d="M14.5 138.2c-3.2 1.7-5.5 5.1-5.5 8.1 0 2.9 3 8 6 10.4 1.3 1.1 1.3 1.2-.3 1.3-1 0-2.7-.5-3.9-1.1-1.6-.9-2.4-.7-4.3 1.1-3.2 3-3.9 7-2.1 11.3 2.2 5.4 6.1 6.9 20.1 7.8 6.6.4 13.5 1.1 15.3 1.5 3.2.6 3.3.6 2.7-1.9-.4-1.3 0-7.3.9-13.1.9-5.9 1.6-11.4 1.6-12.4 0-1.2-2.4-3-7.2-5.5-4-2.1-9.1-4.9-11.3-6.2-4.3-2.6-8.8-3.1-12-1.3zM231.8 137.7c-1.8.5-16.1 8.3-19.2 10.5-1.8 1.4-1.8 1.8-.2 12.9.9 6.2 1.6 12.9 1.6 14.6 0 3 .2 3.2 2.8 2.7 1.5-.3 5.9-.8 9.7-1.2 6-.6 7-1 7.3-2.8.2-1.1-.6-2.8-1.8-3.9-1.1-1-2-2.4-2-3.2 0-1 .6-.8 2.2.7 1.2 1.1 2.5 2 3 2 1.4 0 3-4.2 2.5-6.8-.5-2.5-.4-2.5.9-.7 1.8 2.4 1.7 4.5-.1 6.9-.8 1.1-1.5 3.3-1.5 4.8 0 2.8.1 2.9 3.8 2.2 10.5-1.8 13.8-10.6 6.9-18.3-3.2-3.5-3.4-4.3-3-8.5.7-5.6-1.3-9.1-6.2-11.2-3.5-1.4-3.8-1.5-6.7-.7zM67.5 199.5c-17.1 4.9-34.9 8.5-46.2 9.2-13.9.8-18.3 3.6-18.3 11.6 0 3 .7 4.5 3.6 7.3 3.2 3.3 3.5 4 2.9 7.6-1.3 7.5 3.2 12.8 10.8 12.8 2.4 0 6.1-1.8 13.3-6.4 8.7-5.6 9.9-6.7 10.2-9.5.3-2.6-.2-3.4-3.2-5.2-3.2-1.8-3.6-2.6-3.6-6.1 0-2.3.4-3.7 1-3.3.6.3 1 1.9 1 3.5 0 2.3.7 3.3 3.1 4.6 3.1 1.6 3.2 1.5 5.5-1.3 2.9-3.5 3.3-1 .4 2.7-1.1 1.4-2 3.5-2 4.7 0 2.1.2 2.2 2.8 1.1 1.5-.6 10.6-3.9 20.2-7.3l17.5-6.3.3-7.4c.1-4-.1-9.1-.6-11.3-.7-3.5-1.1-4-3.7-4.2-1.7-.1-8.4 1.4-15 3.2zM171.1 199.2c-1.8 6-2.4 19.3-.9 20.5.7.5 7.6 3.4 15.3 6.3 17.3 6.5 32.4 13.5 39.3 18.2 6.6 4.6 10.1 5.4 14.5 3.3 4.5-2.1 6.1-5.3 5.5-11-.5-4.1-.2-5 2.8-8.6 3.8-4.5 4.3-8.2 1.9-12.8-2.1-4.2-6.7-5.8-18-6.4-5.5-.3-14.4-1.5-19.8-2.7l-9.8-2.1-3.5 2.6c-2.3 1.8-3.3 3.2-2.9 4.2.4 1.3.3 1.4-1 .3-1.3-1.1-1.1-1.7 1.5-5l2.9-3.7-10.9-3.2c-14.1-4-15.6-4-16.9.1z"/>
 </symbol>

 <symbol id="kh-world-space-paranoids" viewBox="0 0 256 256" xmlns="http://www.w3.org/2000/svg">
 <path d="M110.8 13c-39.7 6.3-73.4 32.3-89.1 68.5-2.2 4.9-5.1 13.3-6.5 18.5-2.3 8.6-2.5 11.3-2.5 28s.2 19.4 2.5 28c11.5 42.6 42.2 73.3 84.8 84.8 8.6 2.3 11.3 2.5 28 2.5 16.8 0 19.4-.2 28.3-2.6 42-11.2 73.2-42.4 84.4-84.4 2.4-8.9 2.6-11.5 2.6-28.3s-.2-19.4-2.6-28.3c-11.4-42.7-43.4-74.2-86-84.8-9.4-2.3-34.4-3.4-43.9-1.9zm30.9 18.1c43.6 6 78.6 42.1 83.5 86.3 5.1 45.6-22.8 88.9-66.7 103.5-58.6 19.4-120.8-20.6-127.7-82.3-5.1-45.7 23.1-89.3 67-103.5 15.1-4.9 28.5-6.1 43.9-4z"/>
 <path d="M115.5 38.6c-1.1.2-5.1 1.1-8.8 2-31.6 7.2-57.1 32.3-66 64.9-3.1 11.5-3.1 33.5 0 45 7.3 26.9 26.2 49.1 50.9 60 12.1 5.3 20.6 7 36.4 7 11.8 0 16-.4 22.5-2.2 32.2-8.8 56-32.6 64.8-64.8 3.1-11.5 3.1-33.5 0-45-8.8-32.3-32.2-55.6-64.8-64.7-6.8-1.9-30.1-3.4-35-2.2zM145.4 58c32.5 8.3 54.6 36.6 54.6 70 0 40.1-31.9 72-72 72-40.2 0-72-31.8-72-72 0-33.2 21.9-61.5 54.2-70 10-2.6 25-2.6 35.2 0z"/>
 <path d="M119.5 63.9c-21.1 3.4-39 15.9-48.2 33.7-5.6 10.7-7.6 18.8-7.6 30.4 0 17.6 6.4 33 18.8 45.5 12.5 12.4 27.9 18.8 45.5 18.8s33-6.4 45.5-18.8c12.4-12.5 18.8-27.9 18.8-45.5s-6.4-33-18.8-45.5c-14-14-35.8-21.5-54-18.6z"/>
 </symbol>

 <symbol id="kh-world-atlantica" viewBox="0 0 256 256" xmlns="http://www.w3.org/2000/svg">
 <path d="M211.3 8c-.6 1.4-7.4 19.4-15.3 40-7.8 20.6-14.8 39-15.6 40.8l-1.4 3.4-3.5-6.8c-12-22.9-32.9-39.1-59.5-46.1-13-3.5-32.4-3.7-45.3-.5-35.6 8.8-61.3 35-67.2 68.7-1.9 11-1.9 16 0 26.9 3 17.1 10 30.9 22.3 43.8 25.8 27 64.8 36.2 100.6 23.8 14.5-5 29.5-15.3 39.2-27 5.6-6.6 13.2-20.3 15.4-27.5 2-6.5 24.2-64.9 25-65.8.9-1.1 6.4 5.3 9.2 10.6 1.4 2.7 2.3 6.8 2.6 11.5.8 12-4.4 23.3-16.8 36.5-3.4 3.7-6 6.7-5.6 6.7 1.3 0 16.1-6.2 22.9-9.6 28-14 39.3-30.7 34.3-50.4-2.4-9.5-8-20.4-20-39-12-18.5-16.2-26.5-18.6-36-1.6-6-1.8-6.3-2.7-4zM210.5 162.6c-13.7 2.9-25.1 5.3-25.2 5.4-.2 0-.3 9.7-.3 21.5s-.2 21.5-.4 21.5c-.3 0-2-.9-3.9-2-15-8.8-38.7 3.3-38.7 19.7 0 6.4 1.6 9.9 6.4 14.1 6.2 5.4 16.5 6.8 25.6 3.3 7.3-2.8 11.4-6.3 14.4-12.3 2.5-5 2.6-5.7 2.6-24 0-10.3.2-18.8.4-18.8.3 0 9.1-1.8 19.6-4 10.5-2.2 19.8-4 20.6-4 1 0 1.4 1.4 1.4 5.8v5.9l-5.2-1.8c-18.9-6.6-37.3 13.5-24.3 26.5 9 9 26.8 5.5 33.1-6.6 1.9-3.7 2.1-55.9.2-55.7-.7 0-12.5 2.5-26.3 5.5zm22.3 10.1c-.3 2.8-.5 2.8-17.8 6.5-26.9 5.6-24 5.4-24 1.9 0-2.8.3-3 5.8-4.1 3.1-.7 11.6-2.4 18.7-4 17.2-3.7 17.7-3.7 17.3-.3z"/>
 </symbol>

</svg>